{
  "accessors": [
    {
      "bufferView": 2,
      "componentType": 5126,
      "count": 65532,
      "max": [
        3.7945766448974609,
        0.22989368438720703,
        6.0704126358032227
      ],
      "min": [
        -13.643714904785156,
        -1.3326778411865234,
        -8.9127302169799805
      ],
      "type": "VEC3"
    },
    {
      "bufferView": 2,
      "byteOffset": 786384,
      "componentType": 5126,
      "count": 65532,
      "max": [
        0.99579530954360962,
        0.86304235458374023,
        0.98842942714691162
      ],
      "min": [
        -0.9999314546585083,
        -0.99999988079071045,
        -0.99863225221633911
      ],
      "type": "VEC3"
    },
    {
      "bufferView": 3,
      "componentType": 5126,
      "count": 65532,
      "max": [
        1,
        0.99999815225601196,
        0.86705189943313599,
        -1
      ],
      "min": [
        -0.99998092651367188,
        -0.99999988079071045,
        -0.96501100063323975,
        -1
      ],
      "type": "VEC4"
    },
    {
      "bufferView": 3,
      "byteOffset": 1048512,
      "componentType": 5126,
      "count": 65532,
      "max": [
        0.91764706373214722,
        0.83921569585800171,
        0.81176471710205078,
        1
      ],
      "min": [
        0,
        0,
        0,
        1
      ],
      "type": "VEC4"
    },
    {
      "bufferView": 1,
      "componentType": 5126,
      "count": 65532,
      "max": [
        0.99975597858428955,
        0.4157710075378418
      ],
      "min": [
        0.00024399999529123306,
        0.00024399999529123306
      ],
      "type": "VEC2"
    },
    {
      "bufferView": 0,
      "componentType": 5125,
      "count": 266100,
      "max": [
        65531
      ],
      "min": [
        0
      ],
      "type": "SCALAR"
    },
    {
      "bufferView": 2,
      "byteOffset": 1572768,
      "componentType": 5126,
      "count": 65532,
      "max": [
        2.5351316928863525,
        0.45738315582275391,
        5.849085807800293
      ],
      "min": [
        -13.888890266418457,
        -1.6283435821533203,
        -11.215091705322266
      ],
      "type": "VEC3"
    },
    {
      "bufferView": 2,
      "byteOffset": 2359152,
      "componentType": 5126,
      "count": 65532,
      "max": [
        0.99956035614013672,
        0.99093729257583618,
        0.99994742870330811
      ],
      "min": [
        -0.9988594651222229,
        -0.99999994039535522,
        -0.99967551231384277
      ],
      "type": "VEC3"
    },
    {
      "bufferView": 3,
      "byteOffset": 2097024,
      "componentType": 5126,
      "count": 65532,
      "max": [
        1,
        0.99999749660491943,
        0.9980434775352478,
        -1
      ],
      "min": [
        -1,
        -0.99999940395355225,
        -0.95526379346847534,
        -1
      ],
      "type": "VEC4"
    },
    {
      "bufferView": 3,
      "byteOffset": 3145536,
      "componentType": 5126,
      "count": 65532,
      "max": [
        0.85490196943283081,
        0.85882353782653809,
        0.81960785388946533,
        1
      ],
      "min": [
        0,
        0,
        0,
        1
      ],
      "type": "VEC4"
    },
    {
      "bufferView": 1,
      "byteOffset": 524256,
      "componentType": 5126,
      "count": 65532,
      "max": [
        0.99975597858428955,
        0.41870099306106567
      ],
      "min": [
        0.00024399999529123306,
        0.00024399999529123306
      ],
      "type": "VEC2"
    },
    {
      "bufferView": 0,
      "byteOffset": 1064400,
      "componentType": 5125,
      "count": 221580,
      "max": [
        65531
      ],
      "min": [
        0
      ],
      "type": "SCALAR"
    },
    {
      "bufferView": 2,
      "byteOffset": 3145536,
      "componentType": 5126,
      "count": 65534,
      "max": [
        1.4801163673400879,
        0.51334953308105469,
        10.032971382141113
      ],
      "min": [
        -14.516881942749023,
        -1.7484397888183594,
        -11.589518547058105
      ],
      "type": "VEC3"
    },
    {
      "bufferView": 2,
      "byteOffset": 3931944,
      "componentType": 5126,
      "count": 65534,
      "max": [
        0.99991250038146973,
        0.99946838617324829,
        0.99983912706375122
      ],
      "min": [
        -0.99997437000274658,
        -0.99999827146530151,
        -0.9998924732208252
      ],
      "type": "VEC3"
    },
    {
      "bufferView": 3,
      "byteOffset": 4194048,
      "componentType": 5126,
      "count": 65534,
      "max": [
        1,
        0.99999839067459106,
        0.99996489286422729,
        1
      ],
      "min": [
        -0.99999880790710449,
        -0.9999997615814209,
        -0.99980932474136353,
        -1
      ],
      "type": "VEC4"
    },
    {
      "bufferView": 3,
      "byteOffset": 5242592,
      "componentType": 5126,
      "count": 65534,
      "max": [
        0.89019608497619629,
        0.87450981140136719,
        0.83529412746429443,
        1
      ],
      "min": [
        0,
        0,
        0,
        1
      ],
      "type": "VEC4"
    },
    {
      "bufferView": 1,
      "byteOffset": 1048512,
      "componentType": 5126,
      "count": 65534,
      "max": [
        0.99975597858428955,
        0.40770599246025085
      ],
      "min": [
        0.00024399999529123306,
        0.00024399999529123306
      ],
      "type": "VEC2"
    },
    {
      "bufferView": 0,
      "byteOffset": 1950720,
      "componentType": 5125,
      "count": 222504,
      "max": [
        65533
      ],
      "min": [
        0
      ],
      "type": "SCALAR"
    },
    {
      "bufferView": 2,
      "byteOffset": 4718352,
      "componentType": 5126,
      "count": 65532,
      "max": [
        12.097817420959473,
        0.535675048828125,
        8.7278318405151367
      ],
      "min": [
        -14.484345436096191,
        -1.7003984451293945,
        -9.0262527465820312
      ],
      "type": "VEC3"
    },
    {
      "bufferView": 2,
      "byteOffset": 5504736,
      "componentType": 5126,
      "count": 65532,
      "max": [
        0.99948126077651978,
        0.9938165545463562,
        0.9999387264251709
      ],
      "min": [
        -0.99998533725738525,
        -0.99999940395355225,
        -0.9999200701713562
      ],
      "type": "VEC3"
    },
    {
      "bufferView": 3,
      "byteOffset": 6291136,
      "componentType": 5126,
      "count": 65532,
      "max": [
        1,
        0.99999946355819702,
        0.99999988079071045,
        1
      ],
      "min": [
        -0.99999767541885376,
        -0.99999958276748657,
        -0.99969202280044556,
        -1
      ],
      "type": "VEC4"
    },
    {
      "bufferView": 3,
      "byteOffset": 7339648,
      "componentType": 5126,
      "count": 65532,
      "max": [
        0.81568628549575806,
        0.79607844352722168,
        0.76470589637756348,
        1
      ],
      "min": [
        0,
        0,
        0,
        1
      ],
      "type": "VEC4"
    },
    {
      "bufferView": 1,
      "byteOffset": 1572784,
      "componentType": 5126,
      "count": 65532,
      "max": [
        0.99975597858428955,
        0.4313960075378418
      ],
      "min": [
        0.00024399999529123306,
        0.00024399999529123306
      ],
      "type": "VEC2"
    },
    {
      "bufferView": 0,
      "byteOffset": 2840736,
      "componentType": 5125,
      "count": 246858,
      "max": [
        65531
      ],
      "min": [
        0
      ],
      "type": "SCALAR"
    },
    {
      "bufferView": 2,
      "byteOffset": 6291120,
      "componentType": 5126,
      "count": 65534,
      "max": [
        11.640462875366211,
        0.535675048828125,
        12.080283164978027
      ],
      "min": [
        -8.0256786346435547,
        -1.6924962997436523,
        -9.0262527465820312
      ],
      "type": "VEC3"
    },
    {
      "bufferView": 2,
      "byteOffset": 7077528,
      "componentType": 5126,
      "count": 65534,
      "max": [
        0.99956446886062622,
        0.9991338849067688,
        0.99994218349456787
      ],
      "min": [
        -0.99958246946334839,
        -0.99999946355819702,
        -0.99973344802856445
      ],
      "type": "VEC3"
    },
    {
      "bufferView": 3,
      "byteOffset": 8388160,
      "componentType": 5126,
      "count": 65534,
      "max": [
        1,
        0.99999290704727173,
        0.99998462200164795,
        -1
      ],
      "min": [
        -0.99999994039535522,
        -0.99999541044235229,
        -0.99976325035095215,
        -1
      ],
      "type": "VEC4"
    },
    {
      "bufferView": 3,
      "byteOffset": 9436704,
      "componentType": 5126,
      "count": 65534,
      "max": [
        0.78039216995239258,
        0.68235296010971069,
        0.54509806632995605,
        1
      ],
      "min": [
        0,
        0,
        0,
        1
      ],
      "type": "VEC4"
    },
    {
      "bufferView": 1,
      "byteOffset": 2097040,
      "componentType": 5126,
      "count": 65534,
      "max": [
        0.99975597858428955,
        0.3806149959564209
      ],
      "min": [
        0.00024399999529123306,
        0.00024399999529123306
      ],
      "type": "VEC2"
    },
    {
      "bufferView": 0,
      "byteOffset": 3828168,
      "componentType": 5125,
      "count": 245604,
      "max": [
        65533
      ],
      "min": [
        0
      ],
      "type": "SCALAR"
    },
    {
      "bufferView": 2,
      "byteOffset": 7863936,
      "componentType": 5126,
      "count": 65534,
      "max": [
        10.968197822570801,
        0.52813529968261719,
        10.899260520935059
      ],
      "min": [
        -8.0769948959350586,
        -1.5305509567260742,
        -5.0442323684692383
      ],
      "type": "VEC3"
    },
    {
      "bufferView": 2,
      "byteOffset": 8650344,
      "componentType": 5126,
      "count": 65534,
      "max": [
        0.99991625547409058,
        0.99685466289520264,
        0.99886018037796021
      ],
      "min": [
        -0.99930405616760254,
        -0.99999994039535522,
        -0.99867784976959229
      ],
      "type": "VEC3"
    },
    {
      "bufferView": 3,
      "byteOffset": 10485248,
      "componentType": 5126,
      "count": 65534,
      "max": [
        1,
        0.99999755620956421,
        0.98944979906082153,
        1
      ],
      "min": [
        -0.99999415874481201,
        -0.99999988079071045,
        -0.99988168478012085,
        -1
      ],
      "type": "VEC4"
    },
    {
      "bufferView": 3,
      "byteOffset": 11533792,
      "componentType": 5126,
      "count": 65534,
      "max": [
        0.72549021244049072,
        0.64705884456634521,
        0.54901963472366333,
        1
      ],
      "min": [
        0,
        0,
        0,
        1
      ],
      "type": "VEC4"
    },
    {
      "bufferView": 1,
      "byteOffset": 2621312,
      "componentType": 5126,
      "count": 65534,
      "max": [
        0.99975597858428955,
        0.38256800174713135
      ],
      "min": [
        0.00024399999529123306,
        0.00024399999529123306
      ],
      "type": "VEC2"
    },
    {
      "bufferView": 0,
      "byteOffset": 4810584,
      "componentType": 5125,
      "count": 253365,
      "max": [
        65533
      ],
      "min": [
        0
      ],
      "type": "SCALAR"
    },
    {
      "bufferView": 2,
      "byteOffset": 9436752,
      "componentType": 5126,
      "count": 15858,
      "max": [
        11.036044120788574,
        0.52559852600097656,
        8.642059326171875
      ],
      "min": [
        -3.8272700309753418,
        -1.2772083282470703,
        -2.5351121425628662
      ],
      "type": "VEC3"
    },
    {
      "bufferView": 2,
      "byteOffset": 9627048,
      "componentType": 5126,
      "count": 15858,
      "max": [
        0.99911165237426758,
        0.99668699502944946,
        0.99377655982971191
      ],
      "min": [
        -0.99994951486587524,
        -0.99999958276748657,
        -0.99190765619277954
      ],
      "type": "VEC3"
    },
    {
      "bufferView": 3,
      "byteOffset": 12582336,
      "componentType": 5126,
      "count": 15858,
      "max": [
        1,
        0.9999508261680603,
        0.95752114057540894,
        -1
      ],
      "min": [
        -0.99999672174453735,
        -0.99999988079071045,
        -0.9542691707611084,
        -1
      ],
      "type": "VEC4"
    },
    {
      "bufferView": 3,
      "byteOffset": 12836064,
      "componentType": 5126,
      "count": 15858,
      "max": [
        0.69411766529083252,
        0.60784316062927246,
        0.50980395078659058,
        1
      ],
      "min": [
        0,
        0,
        0,
        1
      ],
      "type": "VEC4"
    },
    {
      "bufferView": 1,
      "byteOffset": 3145584,
      "componentType": 5126,
      "count": 15858,
      "max": [
        0.99975597858428955,
        0.37849399447441101
      ],
      "min": [
        0.00024399999529123306,
        0.00024399999529123306
      ],
      "type": "VEC2"
    },
    {
      "bufferView": 0,
      "byteOffset": 5824044,
      "componentType": 5125,
      "count": 43986,
      "max": [
        15857
      ],
      "min": [
        0
      ],
      "type": "SCALAR"
    }
  ],
  "asset": {
    "extras": {
      "author": "Geoffrey Marchal (https://sketchfab.com/geoffreymarchal)",
      "license": "CC-BY-NC-4.0 (http://creativecommons.org/licenses/by-nc/4.0/)",
      "source": "https://sketchfab.com/3d-models/portrait-of-a-woman-61fdcc3bde184224bb44e20116eb3091",
      "title": "Portrait of a woman"
    },
    "generator": "Sketchfab-6.70.0",
    "version": "2.0"
  },
  "bufferViews": [
    {
      "buffer": 0,
      "byteLength": 5999988,
      "byteOffset": 0,
      "name": "floatBufferViews",
      "target": 34963
    },
    {
      "buffer": 0,
      "byteLength": 3272448,
      "byteOffset": 5999988,
      "byteStride": 8,
      "name": "floatBufferViews",
      "target": 34962
    },
    {
      "buffer": 0,
      "byteLength": 9817344,
      "byteOffset": 9272436,
      "byteStride": 12,
      "name": "floatBufferViews",
      "target": 34962
    },
    {
      "buffer": 0,
      "byteLength": 13089792,
      "byteOffset": 19089780,
      "byteStride": 16,
      "name": "floatBufferViews",
      "target": 34962
    }
  ],
  "buffers": [
    {
      "byteLength": 32179572,
      "uri": "scene.bin"
    }
  ],
  "images": [
    {
      "uri": "textures/portrait_femme_-_CleanUp_-_LowPoly_Material_u1_v1_baseColor.jpeg"
    }
  ],
  "materials": [
    {
      "doubleSided": true,
      "name": "portrait_femme_-_CleanUp_-_LowPoly_Material_u1_v1",
      "pbrMetallicRoughness": {
        "baseColorFactor": [
          1,
          1,
          1,
          1
        ],
        "baseColorTexture": {
          "index": 0,
          "texCoord": 0
        },
        "metallicFactor": 0,
        "roughnessFactor": 1
      }
    }
  ],
  "meshes": [
    {
      "primitives": [
        {
          "attributes": {
            "COLOR_0": 3,
            "NORMAL": 1,
            "POSITION": 0,
            "TANGENT": 2,
            "TEXCOORD_0": 4
          },
          "indices": 5,
          "material": 0,
          "mode": 4
        }
      ]
    },
    {
      "primitives": [
        {
          "attributes": {
            "COLOR_0": 9,
            "NORMAL": 7,
            "POSITION": 6,
            "TANGENT": 8,
            "TEXCOORD_0": 10
          },
          "indices": 11,
          "material": 0,
          "mode": 4
        }
      ]
    },
    {
      "primitives": [
        {
          "attributes": {
            "COLOR_0": 15,
            "NORMAL": 13,
            "POSITION": 12,
            "TANGENT": 14,
            "TEXCOORD_0": 16
          },
          "indices": 17,
          "material": 0,
          "mode": 4
        }
      ]
    },
    {
      "primitives": [
        {
          "attributes": {
            "COLOR_0": 21,
            "NORMAL": 19,
            "POSITION": 18,
            "TANGENT": 20,
            "TEXCOORD_0": 22
          },
          "indices": 23,
          "material": 0,
          "mode": 4
        }
      ]
    },
    {
      "primitives": [
        {
          "attributes": {
            "COLOR_0": 27,
            "NORMAL": 25,
            "POSITION": 24,
            "TANGENT": 26,
            "TEXCOORD_0": 28
          },
          "indices": 29,
          "material": 0,
          "mode": 4
        }
      ]
    },
    {
      "primitives": [
        {
          "attributes": {
            "COLOR_0": 33,
            "NORMAL": 31,
            "POSITION": 30,
            "TANGENT": 32,
            "TEXCOORD_0": 34
          },
          "indices": 35,
          "material": 0,
          "mode": 4
        }
      ]
    },
    {
      "primitives": [
        {
          "attributes": {
            "COLOR_0": 39,
            "NORMAL": 37,
            "POSITION": 36,
            "TANGENT": 38,
            "TEXCOORD_0": 40
          },
          "indices": 41,
          "material": 0,
          "mode": 4
        }
      ]
    }
  ],
  "nodes": [
    {
      "children": [
        1
      ],
      "name": "RootNode (gltf orientation matrix)",
      "rotation": [
        -0.70710678118654746,
        -0,
        -0,
        0.70710678118654757
      ]
    },
    {
      "children": [
        2
      ],
      "matrix": [
        -0.23793776333332062,
        0.04101259633898735,
        -0.97041416168212891,
        0,
        1.0408340855860843e-17,
        0.99910813570022583,
        0.042225290089845657,
        0,
        0.97128039598464966,
        0.010046990588307381,
        -0.23772554099559784,
        0,
        -1.7356985807418823,
        0.046600412577390671,
        -0.84442198276519775,
        1
      ],
      "name": "RootNode (model correction matrix)"
    },
    {
      "children": [
        3,
        4,
        5,
        6,
        7,
        8,
        9
      ],
      "name": "portrait_femme_-_CleanUp_-_LowPoly.obj.cleaner.materialmerger.gles"
    },
    {
      "mesh": 0,
      "name": ""
    },
    {
      "mesh": 1,
      "name": ""
    },
    {
      "mesh": 2,
      "name": ""
    },
    {
      "mesh": 3,
      "name": ""
    },
    {
      "mesh": 4,
      "name": ""
    },
    {
      "mesh": 5,
      "name": ""
    },
    {
      "mesh": 6,
      "name": ""
    }
  ],
  "samplers": [
    {
      "magFilter": 9729,
      "minFilter": 9987,
      "wrapS": 10497,
      "wrapT": 10497
    }
  ],
  "scene": 0,
  "scenes": [
    {
      "name": "OSG_Scene",
      "nodes": [
        0
      ]
    }
  ],
  "textures": [
    {
      "sampler": 0,
      "source": 0
    }
  ]
}

