{
  "accessors": [
    {
      "bufferView": 2,
      "componentType": 5126,
      "count": 65532,
      "max": [
        14.955058097839355,
        -24.914661407470703,
        3.8141918182373047
      ],
      "min": [
        -12.16461181640625,
        -42.408481597900391,
        -5.3293371200561523
      ],
      "type": "VEC3"
    },
    {
      "bufferView": 2,
      "byteOffset": 786384,
      "componentType": 5126,
      "count": 65532,
      "max": [
        0.99976754188537598,
        0.99991464614868164,
        0.99999850988388062
      ],
      "min": [
        -0.99998968839645386,
        -0.99999821186065674,
        -0.99999266862869263
      ],
      "type": "VEC3"
    },
    {
      "bufferView": 3,
      "componentType": 5126,
      "count": 65532,
      "max": [
        1,
        0.99999839067459106,
        0.99996203184127808,
        -1
      ],
      "min": [
        -1,
        -0.99999988079071045,
        -0.99999064207077026,
        -1
      ],
      "type": "VEC4"
    },
    {
      "bufferView": 3,
      "byteOffset": 1048512,
      "componentType": 5126,
      "count": 65532,
      "max": [
        0.66274511814117432,
        0.56078433990478516,
        0.56078433990478516,
        1
      ],
      "min": [
        0,
        0,
        0,
        1
      ],
      "type": "VEC4"
    },
    {
      "bufferView": 1,
      "componentType": 5126,
      "count": 65532,
      "max": [
        0.99975597858428955,
        0.37813898921012878
      ],
      "min": [
        0.00024399999529123306,
        0.00024399999529123306
      ],
      "type": "VEC2"
    },
    {
      "bufferView": 0,
      "componentType": 5125,
      "count": 295857,
      "max": [
        65531
      ],
      "min": [
        0
      ],
      "type": "SCALAR"
    },
    {
      "bufferView": 2,
      "byteOffset": 1572768,
      "componentType": 5126,
      "count": 65532,
      "max": [
        14.951031684875488,
        -24.722944259643555,
        -0.53283977508544922
      ],
      "min": [
        3.4451255798339844,
        -42.459506988525391,
        -5.4078550338745117
      ],
      "type": "VEC3"
    },
    {
      "bufferView": 2,
      "byteOffset": 2359152,
      "componentType": 5126,
      "count": 65532,
      "max": [
        0.99996358156204224,
        0.99997067451477051,
        0.99992334842681885
      ],
      "min": [
        -0.99970430135726929,
        -1,
        -0.99999988079071045
      ],
      "type": "VEC3"
    },
    {
      "bufferView": 3,
      "byteOffset": 2097024,
      "componentType": 5126,
      "count": 65532,
      "max": [
        1,
        0.99999958276748657,
        0.99995923042297363,
        1
      ],
      "min": [
        -1,
        -0.99999994039535522,
        -0.99999797344207764,
        -1
      ],
      "type": "VEC4"
    },
    {
      "bufferView": 3,
      "byteOffset": 3145536,
      "componentType": 5126,
      "count": 65532,
      "max": [
        0.67058825492858887,
        0.62352943420410156,
        0.54117649793624878,
        1
      ],
      "min": [
        0,
        0,
        0,
        1
      ],
      "type": "VEC4"
    },
    {
      "bufferView": 1,
      "byteOffset": 524256,
      "componentType": 5126,
      "count": 65532,
      "max": [
        0.99975597858428955,
        0.44116199016571045
      ],
      "min": [
        0.00024399999529123306,
        0.00024399999529123306
      ],
      "type": "VEC2"
    },
    {
      "bufferView": 0,
      "byteOffset": 1183428,
      "componentType": 5125,
      "count": 279411,
      "max": [
        65531
      ],
      "min": [
        0
      ],
      "type": "SCALAR"
    },
    {
      "bufferView": 2,
      "byteOffset": 3145536,
      "componentType": 5126,
      "count": 65534,
      "max": [
        14.957097053527832,
        -24.722944259643555,
        -1.1294097900390625
      ],
      "min": [
        5.180023193359375,
        -42.398307800292969,
        -5.4078550338745117
      ],
      "type": "VEC3"
    },
    {
      "bufferView": 2,
      "byteOffset": 3931944,
      "componentType": 5126,
      "count": 65534,
      "max": [
        0.99996358156204224,
        0.99988341331481934,
        0.99966216087341309
      ],
      "min": [
        -0.99995911121368408,
        -0.99989289045333862,
        -0.99998432397842407
      ],
      "type": "VEC3"
    },
    {
      "bufferView": 3,
      "byteOffset": 4194048,
      "componentType": 5126,
      "count": 65534,
      "max": [
        1,
        1,
        0.99998795986175537,
        1
      ],
      "min": [
        -1,
        -0.99999970197677612,
        -0.99998903274536133,
        -1
      ],
      "type": "VEC4"
    },
    {
      "bufferView": 3,
      "byteOffset": 5242592,
      "componentType": 5126,
      "count": 65534,
      "max": [
        0.65882354974746704,
        0.61568629741668701,
        0.54509806632995605,
        1
      ],
      "min": [
        0,
        0,
        0,
        1
      ],
      "type": "VEC4"
    },
    {
      "bufferView": 1,
      "byteOffset": 1048512,
      "componentType": 5126,
      "count": 65534,
      "max": [
        0.99975597858428955,
        0.4154999852180481
      ],
      "min": [
        0.00024399999529123306,
        0.00024399999529123306
      ],
      "type": "VEC2"
    },
    {
      "bufferView": 0,
      "byteOffset": 2301072,
      "componentType": 5125,
      "count": 234357,
      "max": [
        65533
      ],
      "min": [
        0
      ],
      "type": "SCALAR"
    },
    {
      "bufferView": 2,
      "byteOffset": 4718352,
      "componentType": 5126,
      "count": 65532,
      "max": [
        14.473395347595215,
        -25.292877197265625,
        3.2648468017578125
      ],
      "min": [
        -8.9344139099121094,
        -42.490814208984375,
        -5.2865171432495117
      ],
      "type": "VEC3"
    },
    {
      "bufferView": 2,
      "byteOffset": 5504736,
      "componentType": 5126,
      "count": 65532,
      "max": [
        0.99779629707336426,
        0.99759477376937866,
        0.99997437000274658
      ],
      "min": [
        -0.99996316432952881,
        -0.99998170137405396,
        -0.99999809265136719
      ],
      "type": "VEC3"
    },
    {
      "bufferView": 3,
      "byteOffset": 6291136,
      "componentType": 5126,
      "count": 65532,
      "max": [
        1,
        0.99999940395355225,
        0.99683701992034912,
        1
      ],
      "min": [
        -0.99999839067459106,
        -0.99999982118606567,
        -0.9998747706413269,
        -1
      ],
      "type": "VEC4"
    },
    {
      "bufferView": 3,
      "byteOffset": 7339648,
      "componentType": 5126,
      "count": 65532,
      "max": [
        0.70196080207824707,
        0.65098041296005249,
        0.60000002384185791,
        1
      ],
      "min": [
        0.027450980618596077,
        0.011764706112444401,
        0,
        1
      ],
      "type": "VEC4"
    },
    {
      "bufferView": 1,
      "byteOffset": 1572784,
      "componentType": 5126,
      "count": 65532,
      "max": [
        0.99975597858428955,
        0.54370099306106567
      ],
      "min": [
        0.00024399999529123306,
        0.00024399999529123306
      ],
      "type": "VEC2"
    },
    {
      "bufferView": 0,
      "byteOffset": 3238500,
      "componentType": 5125,
      "count": 300090,
      "max": [
        65531
      ],
      "min": [
        0
      ],
      "type": "SCALAR"
    },
    {
      "bufferView": 2,
      "byteOffset": 6291120,
      "componentType": 5126,
      "count": 65532,
      "max": [
        5.9790220260620117,
        -24.79608154296875,
        3.5826225280761719
      ],
      "min": [
        -8.9943952560424805,
        -40.242656707763672,
        -2.2397851943969727
      ],
      "type": "VEC3"
    },
    {
      "bufferView": 2,
      "byteOffset": 7077504,
      "componentType": 5126,
      "count": 65532,
      "max": [
        0.99987190961837769,
        0.99996566772460938,
        0.99535787105560303
      ],
      "min": [
        -0.99989253282546997,
        -0.99992358684539795,
        -0.99999809265136719
      ],
      "type": "VEC3"
    },
    {
      "bufferView": 3,
      "byteOffset": 8388160,
      "componentType": 5126,
      "count": 65532,
      "max": [
        1,
        0.9999886155128479,
        0.99998819828033447,
        -1
      ],
      "min": [
        -0.99999994039535522,
        -0.99999964237213135,
        -0.99995344877243042,
        -1
      ],
      "type": "VEC4"
    },
    {
      "bufferView": 3,
      "byteOffset": 9436672,
      "componentType": 5126,
      "count": 65532,
      "max": [
        0.7450980544090271,
        0.65098041296005249,
        0.57647061347961426,
        1
      ],
      "min": [
        0.019607843831181526,
        0,
        0,
        1
      ],
      "type": "VEC4"
    },
    {
      "bufferView": 1,
      "byteOffset": 2097040,
      "componentType": 5126,
      "count": 65532,
      "max": [
        0.99975597858428955,
        0.50107699632644653
      ],
      "min": [
        0.00024399999529123306,
        0.00024399999529123306
      ],
      "type": "VEC2"
    },
    {
      "bufferView": 0,
      "byteOffset": 4438860,
      "componentType": 5125,
      "count": 269463,
      "max": [
        65531
      ],
      "min": [
        0
      ],
      "type": "SCALAR"
    },
    {
      "bufferView": 2,
      "byteOffset": 7863888,
      "componentType": 5126,
      "count": 34561,
      "max": [
        5.7601051330566406,
        -24.82853889465332,
        3.0325088500976562
      ],
      "min": [
        -9.053013801574707,
        -32.424465179443359,
        -2.2303047180175781
      ],
      "type": "VEC3"
    },
    {
      "bufferView": 2,
      "byteOffset": 8278620,
      "componentType": 5126,
      "count": 34561,
      "max": [
        0.99800288677215576,
        0.99991834163665771,
        0.99644118547439575
      ],
      "min": [
        -0.99976301193237305,
        -0.99999821186065674,
        -0.99999111890792847
      ],
      "type": "VEC3"
    },
    {
      "bufferView": 3,
      "byteOffset": 10485184,
      "componentType": 5126,
      "count": 34561,
      "max": [
        1,
        0.99996036291122437,
        0.99999338388442993,
        1
      ],
      "min": [
        -0.99999982118606567,
        -0.9999995231628418,
        -0.99997955560684204,
        -1
      ],
      "type": "VEC4"
    },
    {
      "bufferView": 3,
      "byteOffset": 11038160,
      "componentType": 5126,
      "count": 34561,
      "max": [
        0.68235296010971069,
        0.52941179275512695,
        0.44705882668495178,
        1
      ],
      "min": [
        0.039215687662363052,
        0.011764706112444401,
        0,
        1
      ],
      "type": "VEC4"
    },
    {
      "bufferView": 1,
      "byteOffset": 2621296,
      "componentType": 5126,
      "count": 34561,
      "max": [
        0.99975597858428955,
        0.52652299404144287
      ],
      "min": [
        0.00024399999529123306,
        0.00024399999529123306
      ],
      "type": "VEC2"
    },
    {
      "bufferView": 0,
      "byteOffset": 5516712,
      "componentType": 5125,
      "count": 120819,
      "max": [
        34560
      ],
      "min": [
        0
      ],
      "type": "SCALAR"
    }
  ],
  "asset": {
    "extras": {
      "author": "Geoffrey Marchal (https://sketchfab.com/geoffreymarchal)",
      "license": "CC-BY-NC-4.0 (http://creativecommons.org/licenses/by-nc/4.0/)",
      "source": "https://sketchfab.com/3d-models/triptych-by-jan-de-witte-299c0e2f589c4a94b3b2b11837c1e643",
      "title": "Triptych by Jan de Witte"
    },
    "generator": "Sketchfab-5.15.0",
    "version": "2.0"
  },
  "bufferViews": [
    {
      "buffer": 0,
      "byteLength": 5999988,
      "byteOffset": 0,
      "name": "floatBufferViews",
      "target": 34963
    },
    {
      "buffer": 0,
      "byteLength": 2897784,
      "byteOffset": 5999988,
      "byteStride": 8,
      "name": "floatBufferViews",
      "target": 34962
    },
    {
      "buffer": 0,
      "byteLength": 8693352,
      "byteOffset": 8897772,
      "byteStride": 12,
      "name": "floatBufferViews",
      "target": 34962
    },
    {
      "buffer": 0,
      "byteLength": 11591136,
      "byteOffset": 17591124,
      "byteStride": 16,
      "name": "floatBufferViews",
      "target": 34962
    }
  ],
  "buffers": [
    {
      "byteLength": 29182260,
      "uri": "scene.bin"
    }
  ],
  "images": [
    {
      "uri": "textures/triptych_-_CleanUp_-_LowPoly_Material_u1_v1_baseColor.jpeg"
    }
  ],
  "materials": [
    {
      "doubleSided": true,
      "name": "triptych_-_CleanUp_-_LowPoly_Material_u1_v1",
      "pbrMetallicRoughness": {
        "baseColorFactor": [
          1,
          1,
          1,
          1
        ],
        "baseColorTexture": {
          "index": 0,
          "texCoord": 0
        },
        "metallicFactor": 0,
        "roughnessFactor": 1
      }
    }
  ],
  "meshes": [
    {
      "primitives": [
        {
          "attributes": {
            "COLOR_0": 3,
            "NORMAL": 1,
            "POSITION": 0,
            "TANGENT": 2,
            "TEXCOORD_0": 4
          },
          "indices": 5,
          "material": 0,
          "mode": 4
        }
      ]
    },
    {
      "primitives": [
        {
          "attributes": {
            "COLOR_0": 9,
            "NORMAL": 7,
            "POSITION": 6,
            "TANGENT": 8,
            "TEXCOORD_0": 10
          },
          "indices": 11,
          "material": 0,
          "mode": 4
        }
      ]
    },
    {
      "primitives": [
        {
          "attributes": {
            "COLOR_0": 15,
            "NORMAL": 13,
            "POSITION": 12,
            "TANGENT": 14,
            "TEXCOORD_0": 16
          },
          "indices": 17,
          "material": 0,
          "mode": 4
        }
      ]
    },
    {
      "primitives": [
        {
          "attributes": {
            "COLOR_0": 21,
            "NORMAL": 19,
            "POSITION": 18,
            "TANGENT": 20,
            "TEXCOORD_0": 22
          },
          "indices": 23,
          "material": 0,
          "mode": 4
        }
      ]
    },
    {
      "primitives": [
        {
          "attributes": {
            "COLOR_0": 27,
            "NORMAL": 25,
            "POSITION": 24,
            "TANGENT": 26,
            "TEXCOORD_0": 28
          },
          "indices": 29,
          "material": 0,
          "mode": 4
        }
      ]
    },
    {
      "primitives": [
        {
          "attributes": {
            "COLOR_0": 33,
            "NORMAL": 31,
            "POSITION": 30,
            "TANGENT": 32,
            "TEXCOORD_0": 34
          },
          "indices": 35,
          "material": 0,
          "mode": 4
        }
      ]
    }
  ],
  "nodes": [
    {
      "children": [
        1
      ],
      "name": "RootNode (gltf orientation matrix)",
      "rotation": [
        -0.70710678118654746,
        -0,
        -0,
        0.70710678118654757
      ]
    },
    {
      "children": [
        2
      ],
      "matrix": [
        0.95560985803604126,
        0.29463502764701843,
        0,
        0,
        0,
        0,
        -1,
        0,
        -0.29463502764701843,
        0.95560985803604126,
        0,
        0,
        -0.17279671132564545,
        -33.256782531738281,
        -34.403701782226562,
        1
      ],
      "name": "RootNode (model correction matrix)"
    },
    {
      "children": [
        3,
        4,
        5,
        6,
        7,
        8
      ],
      "name": "triptych_-_CleanUp_-_LowPoly.obj.cleaner.materialmerger.gles"
    },
    {
      "mesh": 0,
      "name": ""
    },
    {
      "mesh": 1,
      "name": ""
    },
    {
      "mesh": 2,
      "name": ""
    },
    {
      "mesh": 3,
      "name": ""
    },
    {
      "mesh": 4,
      "name": ""
    },
    {
      "mesh": 5,
      "name": ""
    }
  ],
  "samplers": [
    {
      "magFilter": 9729,
      "minFilter": 9987,
      "wrapS": 10497,
      "wrapT": 10497
    }
  ],
  "scene": 0,
  "scenes": [
    {
      "name": "OSG_Scene",
      "nodes": [
        0
      ]
    }
  ],
  "textures": [
    {
      "sampler": 0,
      "source": 0
    }
  ]
}

