{
  "accessors": [
    {
      "bufferView": 2,
      "componentType": 5126,
      "count": 10286,
      "max": [
        2.5660688877105713,
        -17.044776916503906,
        -0.4839949905872345
      ],
      "min": [
        -0.57434499263763428,
        -18.002796173095703,
        -3.6588890552520752
      ],
      "type": "VEC3"
    },
    {
      "bufferView": 2,
      "byteOffset": 123432,
      "componentType": 5126,
      "count": 10286,
      "max": [
        0.9997062087059021,
        0.99994933605194092,
        0.99996799230575562
      ],
      "min": [
        -0.99979126453399658,
        -0.99560624361038208,
        -0.99918085336685181
      ],
      "type": "VEC3"
    },
    {
      "bufferView": 3,
      "componentType": 5126,
      "count": 10286,
      "max": [
        0.99974262714385986,
        0.99992036819458008,
        0.99777275323867798,
        1
      ],
      "min": [
        -0.99980312585830688,
        -0.98750019073486328,
        -0.99909782409667969,
        -1
      ],
      "type": "VEC4"
    },
    {
      "bufferView": 3,
      "byteOffset": 164576,
      "componentType": 5126,
      "count": 10286,
      "max": [
        0.99215686321258545,
        0.92549020051956177,
        0.85490196943283081,
        1
      ],
      "min": [
        0.070588238537311554,
        0.070588238537311554,
        0.043137256056070328,
        1
      ],
      "type": "VEC4"
    },
    {
      "bufferView": 1,
      "componentType": 5126,
      "count": 10286,
      "max": [
        0.96560001373291016,
        0.95989698171615601
      ],
      "min": [
        0,
        0.0039440002292394638
      ],
      "type": "VEC2"
    },
    {
      "bufferView": 0,
      "componentType": 5125,
      "count": 57231,
      "max": [
        10285
      ],
      "min": [
        0
      ],
      "type": "SCALAR"
    }
  ],
  "asset": {
    "extras": {
      "author": "avi (https://sketchfab.com/avi)",
      "license": "SKETCHFAB Editorial (https://sketchfab.com/licenses)",
      "source": "https://sketchfab.com/3d-models/3d-banana-art-that-wont-cost-you-120k-3010ac5dfcad4d15977517ad16b87a11",
      "title": "3D Banana Art that won't cost you $120K"
    },
    "generator": "Sketchfab-7.10.0",
    "version": "2.0"
  },
  "bufferViews": [
    {
      "buffer": 0,
      "byteLength": 228924,
      "byteOffset": 0,
      "name": "floatBufferViews",
      "target": 34963
    },
    {
      "buffer": 0,
      "byteLength": 82288,
      "byteOffset": 228924,
      "byteStride": 8,
      "name": "floatBufferViews",
      "target": 34962
    },
    {
      "buffer": 0,
      "byteLength": 246864,
      "byteOffset": 311212,
      "byteStride": 12,
      "name": "floatBufferViews",
      "target": 34962
    },
    {
      "buffer": 0,
      "byteLength": 329152,
      "byteOffset": 558076,
      "byteStride": 16,
      "name": "floatBufferViews",
      "target": 34962
    }
  ],
  "buffers": [
    {
      "byteLength": 887228,
      "uri": "scene.bin"
    }
  ],
  "extensionsRequired": [
    "KHR_materials_pbrSpecularGlossiness"
  ],
  "extensionsUsed": [
    "KHR_materials_pbrSpecularGlossiness"
  ],
  "images": [
    {
      "uri": "textures/banana_art_diffuse.png"
    }
  ],
  "materials": [
    {
      "doubleSided": true,
      "emissiveFactor": [
        0,
        0,
        0
      ],
      "extensions": {
        "KHR_materials_pbrSpecularGlossiness": {
          "diffuseFactor": [
            1,
            1,
            1,
            1
          ],
          "diffuseTexture": {
            "index": 0,
            "texCoord": 0
          },
          "glossinessFactor": 1,
          "specularFactor": [
            0,
            0,
            0
          ]
        }
      },
      "name": "banana_art"
    }
  ],
  "meshes": [
    {
      "primitives": [
        {
          "attributes": {
            "COLOR_0": 3,
            "NORMAL": 1,
            "POSITION": 0,
            "TANGENT": 2,
            "TEXCOORD_0": 4
          },
          "indices": 5,
          "material": 0,
          "mode": 4
        }
      ]
    }
  ],
  "nodes": [
    {
      "children": [
        1
      ],
      "name": "RootNode (gltf orientation matrix)",
      "rotation": [
        -0.70710678118654746,
        -0,
        -0,
        0.70710678118654757
      ]
    },
    {
      "children": [
        2
      ],
      "matrix": [
        -0.85289734601974487,
        -0.21728715300559998,
        0.47471299767494202,
        0,
        0.10157081484794617,
        -0.96096104383468628,
        -0.25736606121063232,
        0,
        0.51210302114486694,
        -0.1712898463010788,
        0.84167110919952393,
        0,
        4.6859264373779297,
        -34.501899719238281,
        -5.3107461929321289,
        1
      ],
      "name": "RootNode (model correction matrix)"
    },
    {
      "children": [
        3
      ],
      "name": "banana art .obj.cleaner.materialmerger.gles"
    },
    {
      "mesh": 0,
      "name": ""
    }
  ],
  "samplers": [
    {
      "magFilter": 9729,
      "minFilter": 9987,
      "wrapS": 10497,
      "wrapT": 10497
    }
  ],
  "scene": 0,
  "scenes": [
    {
      "name": "OSG_Scene",
      "nodes": [
        0
      ]
    }
  ],
  "textures": [
    {
      "sampler": 0,
      "source": 0
    }
  ]
}

