{
  "accessors": [
    {
      "bufferView": 2,
      "componentType": 5126,
      "count": 65532,
      "max": [
        0.91671597957611084,
        17.714664459228516,
        5.6079039573669434
      ],
      "min": [
        -0.21509599685668945,
        6.099329948425293,
        -3.2591619491577148
      ],
      "type": "VEC3"
    },
    {
      "bufferView": 2,
      "byteOffset": 786384,
      "componentType": 5126,
      "count": 65532,
      "max": [
        0.99892908334732056,
        0.99994707107543945,
        0.99998599290847778
      ],
      "min": [
        -0.99999731779098511,
        -0.99682676792144775,
        -0.99996405839920044
      ],
      "type": "VEC3"
    },
    {
      "bufferView": 1,
      "componentType": 5126,
      "count": 65532,
      "max": [
        0.71153301000595093,
        0.95640099048614502
      ],
      "min": [
        0.088054001331329346,
        0.068382002413272858
      ],
      "type": "VEC2"
    },
    {
      "bufferView": 0,
      "componentType": 5125,
      "count": 375477,
      "max": [
        65531
      ],
      "min": [
        0
      ],
      "type": "SCALAR"
    },
    {
      "bufferView": 2,
      "byteOffset": 1572768,
      "componentType": 5126,
      "count": 65532,
      "max": [
        1.5497629642486572,
        17.598274230957031,
        5.5839228630065918
      ],
      "min": [
        -0.039937000721693039,
        8.9811029434204102,
        -3.2097818851470947
      ],
      "type": "VEC3"
    },
    {
      "bufferView": 2,
      "byteOffset": 2359152,
      "componentType": 5126,
      "count": 65532,
      "max": [
        0.73096871376037598,
        0.99975478649139404,
        0.99999159574508667
      ],
      "min": [
        -0.9999961256980896,
        -0.99906057119369507,
        -0.99962007999420166
      ],
      "type": "VEC3"
    },
    {
      "bufferView": 1,
      "byteOffset": 524256,
      "componentType": 5126,
      "count": 65532,
      "max": [
        0.71712201833724976,
        0.7315179705619812
      ],
      "min": [
        0.10585399717092514,
        0.1488720029592514
      ],
      "type": "VEC2"
    },
    {
      "bufferView": 0,
      "byteOffset": 1501908,
      "componentType": 5125,
      "count": 349542,
      "max": [
        65531
      ],
      "min": [
        0
      ],
      "type": "SCALAR"
    },
    {
      "bufferView": 2,
      "byteOffset": 3145536,
      "componentType": 5126,
      "count": 65532,
      "max": [
        1.6397709846496582,
        18.014116287231445,
        5.5840392112731934
      ],
      "min": [
        -0.72270298004150391,
        14.234285354614258,
        -3.1908249855041504
      ],
      "type": "VEC3"
    },
    {
      "bufferView": 2,
      "byteOffset": 3931920,
      "componentType": 5126,
      "count": 65532,
      "max": [
        0.99967038631439209,
        0.99775803089141846,
        0.99999159574508667
      ],
      "min": [
        -0.99999892711639404,
        -0.99999773502349854,
        -0.99888920783996582
      ],
      "type": "VEC3"
    },
    {
      "bufferView": 1,
      "byteOffset": 1048512,
      "componentType": 5126,
      "count": 65532,
      "max": [
        0.71742302179336548,
        0.37306401133537292
      ],
      "min": [
        0.11404599994421005,
        0.00030000001424923539
      ],
      "type": "VEC2"
    },
    {
      "bufferView": 0,
      "byteOffset": 2900076,
      "componentType": 5125,
      "count": 356187,
      "max": [
        65531
      ],
      "min": [
        0
      ],
      "type": "SCALAR"
    },
    {
      "bufferView": 2,
      "byteOffset": 4718304,
      "componentType": 5126,
      "count": 17136,
      "max": [
        1.5597159862518311,
        18.64390754699707,
        5.5123758316040039
      ],
      "min": [
        -0.72270298004150391,
        17.41136360168457,
        -2.8824710845947266
      ],
      "type": "VEC3"
    },
    {
      "bufferView": 2,
      "byteOffset": 4923936,
      "componentType": 5126,
      "count": 17136,
      "max": [
        0.99993699789047241,
        0.99836516380310059,
        0.9878419041633606
      ],
      "min": [
        -0.99999141693115234,
        -0.99999773502349854,
        -0.98344773054122925
      ],
      "type": "VEC3"
    },
    {
      "bufferView": 1,
      "byteOffset": 1572768,
      "componentType": 5126,
      "count": 17136,
      "max": [
        0.70056098699569702,
        0.15678299963474274
      ],
      "min": [
        0.12429700046777725,
        0.00030000001424923539
      ],
      "type": "VEC2"
    },
    {
      "bufferView": 0,
      "byteOffset": 4324824,
      "componentType": 5125,
      "count": 81819,
      "max": [
        17135
      ],
      "min": [
        0
      ],
      "type": "SCALAR"
    }
  ],
  "asset": {
    "extras": {
      "author": "LesleyJohnston (https://sketchfab.com/lesleyjohnston)",
      "license": "CC-BY-4.0 (http://creativecommons.org/licenses/by/4.0/)",
      "source": "https://sketchfab.com/3d-models/ibrox-street-art-not-vj-day-in-times-square-7f0611cae6584270a68082b477be173b",
      "title": "Ibrox Street Art - Not VJ Day in Times Square"
    },
    "generator": "Sketchfab-8.32.0",
    "version": "2.0"
  },
  "bufferViews": [
    {
      "buffer": 0,
      "byteLength": 4652100,
      "byteOffset": 0,
      "name": "floatBufferViews",
      "target": 34963
    },
    {
      "buffer": 0,
      "byteLength": 1709856,
      "byteOffset": 4652100,
      "byteStride": 8,
      "name": "floatBufferViews",
      "target": 34962
    },
    {
      "buffer": 0,
      "byteLength": 5129568,
      "byteOffset": 6361956,
      "byteStride": 12,
      "name": "floatBufferViews",
      "target": 34962
    }
  ],
  "buffers": [
    {
      "byteLength": 11491524,
      "uri": "scene.bin"
    }
  ],
  "extensionsUsed": [
    "KHR_materials_unlit"
  ],
  "images": [
    {
      "uri": "textures/CessnockStreetArt2_baseColor.png"
    }
  ],
  "materials": [
    {
      "doubleSided": true,
      "emissiveFactor": [
        0,
        0,
        0
      ],
      "extensions": {
        "KHR_materials_unlit": {}
      },
      "name": "CessnockStreetArt2",
      "pbrMetallicRoughness": {
        "baseColorFactor": [
          1,
          1,
          1,
          1
        ],
        "baseColorTexture": {
          "index": 0,
          "texCoord": 0
        },
        "metallicFactor": 0,
        "roughnessFactor": 1
      }
    }
  ],
  "meshes": [
    {
      "name": "CessnockStreetArt2_CessnockStreetArt2_0",
      "primitives": [
        {
          "attributes": {
            "NORMAL": 1,
            "POSITION": 0,
            "TEXCOORD_0": 2
          },
          "indices": 3,
          "material": 0,
          "mode": 4
        }
      ]
    },
    {
      "name": "CessnockStreetArt2_CessnockStreetArt2_0",
      "primitives": [
        {
          "attributes": {
            "NORMAL": 5,
            "POSITION": 4,
            "TEXCOORD_0": 6
          },
          "indices": 7,
          "material": 0,
          "mode": 4
        }
      ]
    },
    {
      "name": "CessnockStreetArt2_CessnockStreetArt2_0",
      "primitives": [
        {
          "attributes": {
            "NORMAL": 9,
            "POSITION": 8,
            "TEXCOORD_0": 10
          },
          "indices": 11,
          "material": 0,
          "mode": 4
        }
      ]
    },
    {
      "name": "CessnockStreetArt2_CessnockStreetArt2_0",
      "primitives": [
        {
          "attributes": {
            "NORMAL": 13,
            "POSITION": 12,
            "TEXCOORD_0": 14
          },
          "indices": 15,
          "material": 0,
          "mode": 4
        }
      ]
    }
  ],
  "nodes": [
    {
      "children": [
        1
      ],
      "name": "RootNode (gltf orientation matrix)",
      "rotation": [
        -0.70710678118654746,
        -0,
        -0,
        0.70710678118654757
      ]
    },
    {
      "children": [
        2
      ],
      "matrix": [
        0.43335476517677307,
        0,
        0,
        0,
        0,
        -0.43335476517677307,
        -1.2275940935197971e-16,
        0,
        0,
        1.2275940935197971e-16,
        -0.43335476517677307,
        0,
        3.9243790439513759e-08,
        4.3859720230102539,
        -11.476264953613281,
        1
      ],
      "name": "RootNode (model correction matrix)"
    },
    {
      "children": [
        3
      ],
      "matrix": [
        1,
        0,
        0,
        0,
        0,
        -1,
        0,
        0,
        0,
        0,
        -1,
        0,
        0,
        0,
        0,
        1
      ],
      "name": "c2a8b7b9f4444db7a13551ad72a9b529.fbx"
    },
    {
      "children": [
        4
      ],
      "name": "RootNode"
    },
    {
      "children": [
        5,
        6,
        7,
        8
      ],
      "matrix": [
        -4.3045659259277613e-08,
        0.9847698697478009,
        -0.17386288746278705,
        0,
        -4.3250924508519972e-09,
        -0.17386288746278744,
        -0.98476986974780178,
        0,
        -0.99999999999999933,
        -4.163809508295202e-08,
        1.1743263139685212e-08,
        0,
        0,
        0,
        17.999847412109375,
        1
      ],
      "name": "CessnockStreetArt2"
    },
    {
      "mesh": 0,
      "name": "CessnockStreetArt2_CessnockStreetArt2_0"
    },
    {
      "mesh": 1,
      "name": "CessnockStreetArt2_CessnockStreetArt2_0"
    },
    {
      "mesh": 2,
      "name": "CessnockStreetArt2_CessnockStreetArt2_0"
    },
    {
      "mesh": 3,
      "name": "CessnockStreetArt2_CessnockStreetArt2_0"
    }
  ],
  "samplers": [
    {
      "magFilter": 9729,
      "minFilter": 9987,
      "wrapS": 10497,
      "wrapT": 10497
    }
  ],
  "scene": 0,
  "scenes": [
    {
      "name": "OSG_Scene",
      "nodes": [
        0
      ]
    }
  ],
  "textures": [
    {
      "sampler": 0,
      "source": 0
    }
  ]
}

