{
  "accessors": [
    {
      "bufferView": 2,
      "componentType": 5126,
      "count": 65532,
      "max": [
        283.2288818359375,
        277.01565551757812,
        536.7774658203125
      ],
      "min": [
        -169.10801696777344,
        -175.53433227539062,
        -403.05758666992188
      ],
      "type": "VEC3"
    },
    {
      "bufferView": 2,
      "byteOffset": 786384,
      "componentType": 5126,
      "count": 65532,
      "max": [
        1,
        1,
        0.99999988079071045
      ],
      "min": [
        -1,
        -1,
        -1
      ],
      "type": "VEC3"
    },
    {
      "bufferView": 3,
      "componentType": 5126,
      "count": 65532,
      "max": [
        0.99999946355819702,
        0.99999719858169556,
        0.99999111890792847,
        1
      ],
      "min": [
        -0.92529231309890747,
        -0.99995487928390503,
        -0.99951541423797607,
        1
      ],
      "type": "VEC4"
    },
    {
      "bufferView": 1,
      "componentType": 5126,
      "count": 65532,
      "max": [
        0.52957999706268311,
        0.99743998050689697
      ],
      "min": [
        0.0025599999353289604,
        0.35339400172233582
      ],
      "type": "VEC2"
    },
    {
      "bufferView": 0,
      "componentType": 5125,
      "count": 383292,
      "max": [
        65531
      ],
      "min": [
        0
      ],
      "type": "SCALAR"
    },
    {
      "bufferView": 2,
      "byteOffset": 1572768,
      "componentType": 5126,
      "count": 65532,
      "max": [
        306.74072265625,
        276.02120971679688,
        516.39105224609375
      ],
      "min": [
        -171.9493408203125,
        -134.16145324707031,
        -458.747314453125
      ],
      "type": "VEC3"
    },
    {
      "bufferView": 2,
      "byteOffset": 2359152,
      "componentType": 5126,
      "count": 65532,
      "max": [
        1,
        1,
        0.99938219785690308
      ],
      "min": [
        -1,
        -0.99937915802001953,
        -1
      ],
      "type": "VEC3"
    },
    {
      "bufferView": 3,
      "byteOffset": 1048512,
      "componentType": 5126,
      "count": 65532,
      "max": [
        0.99992072582244873,
        0.99995380640029907,
        0.99948078393936157,
        1
      ],
      "min": [
        -0.99844372272491455,
        -0.99999582767486572,
        -0.99908071756362915,
        1
      ],
      "type": "VEC4"
    },
    {
      "bufferView": 1,
      "byteOffset": 524256,
      "componentType": 5126,
      "count": 65532,
      "max": [
        0.76371300220489502,
        0.99743998050689697
      ],
      "min": [
        0.18944300711154938,
        0.06964699923992157
      ],
      "type": "VEC2"
    },
    {
      "bufferView": 0,
      "byteOffset": 1533168,
      "componentType": 5125,
      "count": 371256,
      "max": [
        65531
      ],
      "min": [
        0
      ],
      "type": "SCALAR"
    },
    {
      "bufferView": 2,
      "byteOffset": 3145536,
      "componentType": 5126,
      "count": 65532,
      "max": [
        306.59869384765625,
        276.02120971679688,
        505.203369140625
      ],
      "min": [
        -213.29042053222656,
        -56.412338256835938,
        -454.4853515625
      ],
      "type": "VEC3"
    },
    {
      "bufferView": 2,
      "byteOffset": 3931920,
      "componentType": 5126,
      "count": 65532,
      "max": [
        1,
        1,
        1
      ],
      "min": [
        -1,
        -0.99908816814422607,
        -0.99909639358520508
      ],
      "type": "VEC3"
    },
    {
      "bufferView": 3,
      "byteOffset": 2097024,
      "componentType": 5126,
      "count": 65532,
      "max": [
        0.99528771638870239,
        0.99999922513961792,
        0.99953395128250122,
        1
      ],
      "min": [
        -1,
        -0.99993890523910522,
        -0.99981850385665894,
        1
      ],
      "type": "VEC4"
    },
    {
      "bufferView": 1,
      "byteOffset": 1048512,
      "componentType": 5126,
      "count": 65532,
      "max": [
        0.96759301424026489,
        0.99743998050689697
      ],
      "min": [
        0.52992898225784302,
        0.60866802930831909
      ],
      "type": "VEC2"
    },
    {
      "bufferView": 0,
      "byteOffset": 3018192,
      "componentType": 5125,
      "count": 367224,
      "max": [
        65531
      ],
      "min": [
        0
      ],
      "type": "SCALAR"
    },
    {
      "bufferView": 2,
      "byteOffset": 4718304,
      "componentType": 5126,
      "count": 65532,
      "max": [
        113.38948059082031,
        68.250228881835938,
        704.983154296875
      ],
      "min": [
        -213.29042053222656,
        -254.80697631835938,
        -269.51593017578125
      ],
      "type": "VEC3"
    },
    {
      "bufferView": 2,
      "byteOffset": 5504688,
      "componentType": 5126,
      "count": 65532,
      "max": [
        1,
        1,
        0.99996161460876465
      ],
      "min": [
        -1,
        -0.99966371059417725,
        -0.9999840259552002
      ],
      "type": "VEC3"
    },
    {
      "bufferView": 3,
      "byteOffset": 3145536,
      "componentType": 5126,
      "count": 65532,
      "max": [
        0.99668759107589722,
        0.99997991323471069,
        0.98318636417388916,
        1
      ],
      "min": [
        -0.99999105930328369,
        -0.99960821866989136,
        -0.96714311838150024,
        1
      ],
      "type": "VEC4"
    },
    {
      "bufferView": 1,
      "byteOffset": 1572768,
      "componentType": 5126,
      "count": 65532,
      "max": [
        0.96759301424026489,
        0.99651402235031128
      ],
      "min": [
        0.39936700463294983,
        0.37479200959205627
      ],
      "type": "VEC2"
    },
    {
      "bufferView": 0,
      "byteOffset": 4487088,
      "componentType": 5125,
      "count": 358053,
      "max": [
        65531
      ],
      "min": [
        0
      ],
      "type": "SCALAR"
    },
    {
      "bufferView": 2,
      "byteOffset": 6291072,
      "componentType": 5126,
      "count": 65532,
      "max": [
        247.49940490722656,
        188.72186279296875,
        704.0596923828125
      ],
      "min": [
        -183.74078369140625,
        -255.44625854492188,
        -408.38507080078125
      ],
      "type": "VEC3"
    },
    {
      "bufferView": 2,
      "byteOffset": 7077456,
      "componentType": 5126,
      "count": 65532,
      "max": [
        1,
        0.999977707862854,
        1
      ],
      "min": [
        -1,
        -1,
        -0.99999129772186279
      ],
      "type": "VEC3"
    },
    {
      "bufferView": 3,
      "byteOffset": 4194048,
      "componentType": 5126,
      "count": 65532,
      "max": [
        0.99999934434890747,
        0.99999320507049561,
        0.9995160698890686,
        1
      ],
      "min": [
        -0.99999886751174927,
        -0.99976587295532227,
        -0.99900168180465698,
        1
      ],
      "type": "VEC4"
    },
    {
      "bufferView": 1,
      "byteOffset": 2097024,
      "componentType": 5126,
      "count": 65532,
      "max": [
        0.94690299034118652,
        0.60902500152587891
      ],
      "min": [
        0.33536601066589355,
        0.025658000260591507
      ],
      "type": "VEC2"
    },
    {
      "bufferView": 0,
      "byteOffset": 5919300,
      "componentType": 5125,
      "count": 372390,
      "max": [
        65531
      ],
      "min": [
        0
      ],
      "type": "SCALAR"
    },
    {
      "bufferView": 2,
      "byteOffset": 7863840,
      "componentType": 5126,
      "count": 65532,
      "max": [
        305.10699462890625,
        157.18330383300781,
        495.57843017578125
      ],
      "min": [
        -223.87431335449219,
        -136.32421875,
        -422.37850952148438
      ],
      "type": "VEC3"
    },
    {
      "bufferView": 2,
      "byteOffset": 8650224,
      "componentType": 5126,
      "count": 65532,
      "max": [
        1,
        1,
        1
      ],
      "min": [
        -1,
        -1,
        -0.99991250038146973
      ],
      "type": "VEC3"
    },
    {
      "bufferView": 3,
      "byteOffset": 5242560,
      "componentType": 5126,
      "count": 65532,
      "max": [
        1,
        0.99997931718826294,
        0.9999815821647644,
        1
      ],
      "min": [
        -0.99989372491836548,
        -0.9989933967590332,
        -0.99991112947463989,
        1
      ],
      "type": "VEC4"
    },
    {
      "bufferView": 1,
      "byteOffset": 2621280,
      "componentType": 5126,
      "count": 65532,
      "max": [
        0.88034898042678833,
        0.87199801206588745
      ],
      "min": [
        0.010239999741315842,
        0.0058189998380839825
      ],
      "type": "VEC2"
    },
    {
      "bufferView": 0,
      "byteOffset": 7408860,
      "componentType": 5125,
      "count": 370164,
      "max": [
        65531
      ],
      "min": [
        0
      ],
      "type": "SCALAR"
    },
    {
      "bufferView": 2,
      "byteOffset": 9436608,
      "componentType": 5126,
      "count": 60284,
      "max": [
        197.98951721191406,
        80.112716674804688,
        565.04852294921875
      ],
      "min": [
        -221.17506408691406,
        -150.49528503417969,
        -457.9659423828125
      ],
      "type": "VEC3"
    },
    {
      "bufferView": 2,
      "byteOffset": 10160016,
      "componentType": 5126,
      "count": 60284,
      "max": [
        1,
        1,
        1
      ],
      "min": [
        -1,
        -1,
        -1
      ],
      "type": "VEC3"
    },
    {
      "bufferView": 3,
      "byteOffset": 6291072,
      "componentType": 5126,
      "count": 60284,
      "max": [
        0.99991512298583984,
        0.99998974800109863,
        0.9999879002571106,
        1
      ],
      "min": [
        -1,
        -1,
        -1,
        -1
      ],
      "type": "VEC4"
    },
    {
      "bufferView": 1,
      "byteOffset": 3145536,
      "componentType": 5126,
      "count": 60284,
      "max": [
        0.99520397186279297,
        0.99743998050689697
      ],
      "min": [
        0.0025599999353289604,
        0.0017099999822676182
      ],
      "type": "VEC2"
    },
    {
      "bufferView": 0,
      "byteOffset": 8889516,
      "componentType": 5125,
      "count": 325593,
      "max": [
        60283
      ],
      "min": [
        0
      ],
      "type": "SCALAR"
    }
  ],
  "asset": {
    "extras": {
      "author": "Alienor.org, Conseil des musées (https://sketchfab.com/alienor.org)",
      "license": "CC-BY-NC-ND-4.0 (http://creativecommons.org/licenses/by-nc-nd/4.0/)",
      "source": "https://sketchfab.com/3d-models/lenfant-aux-sabots-par-robert-wlerick-8e9b4c71610f443480c24f86d0a11192",
      "title": "L'enfant aux sabots par Robert Wlérick"
    },
    "generator": "Sketchfab-8.58.1",
    "version": "2.0"
  },
  "bufferViews": [
    {
      "buffer": 0,
      "byteLength": 10191888,
      "byteOffset": 0,
      "name": "floatBufferViews",
      "target": 34963
    },
    {
      "buffer": 0,
      "byteLength": 3627808,
      "byteOffset": 10191888,
      "byteStride": 8,
      "name": "floatBufferViews",
      "target": 34962
    },
    {
      "buffer": 0,
      "byteLength": 10883424,
      "byteOffset": 13819696,
      "byteStride": 12,
      "name": "floatBufferViews",
      "target": 34962
    },
    {
      "buffer": 0,
      "byteLength": 7255616,
      "byteOffset": 24703120,
      "byteStride": 16,
      "name": "floatBufferViews",
      "target": 34962
    }
  ],
  "buffers": [
    {
      "byteLength": 31958736,
      "uri": "scene.bin"
    }
  ],
  "extensionsRequired": [
    "KHR_materials_pbrSpecularGlossiness"
  ],
  "extensionsUsed": [
    "KHR_materials_pbrSpecularGlossiness"
  ],
  "images": [
    {
      "uri": "textures/material_0_diffuse.jpeg"
    },
    {
      "uri": "textures/material_0_normal.png"
    }
  ],
  "materials": [
    {
      "doubleSided": true,
      "emissiveFactor": [
        0,
        0,
        0
      ],
      "extensions": {
        "KHR_materials_pbrSpecularGlossiness": {
          "diffuseFactor": [
            1,
            1,
            1,
            1
          ],
          "diffuseTexture": {
            "index": 0,
            "texCoord": 0
          },
          "glossinessFactor": 0.56234132520000002,
          "specularFactor": [
            0,
            0,
            0
          ]
        }
      },
      "name": "material_0",
      "normalTexture": {
        "index": 1,
        "scale": 0.44832289593774566,
        "texCoord": 0
      }
    }
  ],
  "meshes": [
    {
      "primitives": [
        {
          "attributes": {
            "NORMAL": 1,
            "POSITION": 0,
            "TANGENT": 2,
            "TEXCOORD_0": 3
          },
          "indices": 4,
          "material": 0,
          "mode": 4
        }
      ]
    },
    {
      "primitives": [
        {
          "attributes": {
            "NORMAL": 6,
            "POSITION": 5,
            "TANGENT": 7,
            "TEXCOORD_0": 8
          },
          "indices": 9,
          "material": 0,
          "mode": 4
        }
      ]
    },
    {
      "primitives": [
        {
          "attributes": {
            "NORMAL": 11,
            "POSITION": 10,
            "TANGENT": 12,
            "TEXCOORD_0": 13
          },
          "indices": 14,
          "material": 0,
          "mode": 4
        }
      ]
    },
    {
      "primitives": [
        {
          "attributes": {
            "NORMAL": 16,
            "POSITION": 15,
            "TANGENT": 17,
            "TEXCOORD_0": 18
          },
          "indices": 19,
          "material": 0,
          "mode": 4
        }
      ]
    },
    {
      "primitives": [
        {
          "attributes": {
            "NORMAL": 21,
            "POSITION": 20,
            "TANGENT": 22,
            "TEXCOORD_0": 23
          },
          "indices": 24,
          "material": 0,
          "mode": 4
        }
      ]
    },
    {
      "primitives": [
        {
          "attributes": {
            "NORMAL": 26,
            "POSITION": 25,
            "TANGENT": 27,
            "TEXCOORD_0": 28
          },
          "indices": 29,
          "material": 0,
          "mode": 4
        }
      ]
    },
    {
      "primitives": [
        {
          "attributes": {
            "NORMAL": 31,
            "POSITION": 30,
            "TANGENT": 32,
            "TEXCOORD_0": 33
          },
          "indices": 34,
          "material": 0,
          "mode": 4
        }
      ]
    }
  ],
  "nodes": [
    {
      "children": [
        1
      ],
      "name": "RootNode (gltf orientation matrix)",
      "rotation": [
        -0.70710678118654746,
        -0,
        -0,
        0.70710678118654757
      ]
    },
    {
      "children": [
        2
      ],
      "matrix": [
        0.9927554726600647,
        -0.025761201977729797,
        -0.11735808849334717,
        0,
        0,
        0.9767448902130127,
        -0.21440468728542328,
        0,
        0.12015223503112793,
        0.21285142004489899,
        0.96966886520385742,
        0,
        -14.49283504486084,
        -24.88762092590332,
        10.911188125610352,
        1
      ],
      "name": "RootNode (model correction matrix)"
    },
    {
      "children": [
        3,
        4,
        5,
        6,
        7,
        8,
        9
      ],
      "name": "enfant2.obj.cleaner.materialmerger.gles"
    },
    {
      "mesh": 0,
      "name": ""
    },
    {
      "mesh": 1,
      "name": ""
    },
    {
      "mesh": 2,
      "name": ""
    },
    {
      "mesh": 3,
      "name": ""
    },
    {
      "mesh": 4,
      "name": ""
    },
    {
      "mesh": 5,
      "name": ""
    },
    {
      "mesh": 6,
      "name": ""
    }
  ],
  "samplers": [
    {
      "magFilter": 9729,
      "minFilter": 9987,
      "wrapS": 10497,
      "wrapT": 10497
    }
  ],
  "scene": 0,
  "scenes": [
    {
      "name": "OSG_Scene",
      "nodes": [
        0
      ]
    }
  ],
  "textures": [
    {
      "sampler": 0,
      "source": 0
    },
    {
      "sampler": 0,
      "source": 1
    }
  ]
}

