{
  "accessors": [
    {
      "bufferView": 2,
      "componentType": 5126,
      "count": 12981,
      "max": [
        10.471710205078125,
        22.691909790039062,
        13.400135040283203
      ],
      "min": [
        -19.326101303100586,
        0.23413056135177612,
        -17.459997177124023
      ],
      "type": "VEC3"
    },
    {
      "bufferView": 2,
      "byteOffset": 155772,
      "componentType": 5126,
      "count": 12981,
      "max": [
        0.99975943565368652,
        0.9999995231628418,
        0.99999493360519409
      ],
      "min": [
        -0.9997594952583313,
        -1,
        -0.99999850988388062
      ],
      "type": "VEC3"
    },
    {
      "bufferView": 3,
      "componentType": 5126,
      "count": 12981,
      "max": [
        1,
        0.99991756677627563,
        0.99999642372131348,
        1
      ],
      "min": [
        -1,
        -0.99999886751174927,
        -0.9997209906578064,
        -1
      ],
      "type": "VEC4"
    },
    {
      "bufferView": 1,
      "componentType": 5126,
      "count": 12981,
      "max": [
        0.99496126174926758,
        0.99950003623962402
      ],
      "min": [
        0.00050000002374872565,
        0.00050002336502075195
      ],
      "type": "VEC2"
    },
    {
      "bufferView": 0,
      "componentType": 5125,
      "count": 69312,
      "max": [
        12980
      ],
      "min": [
        0
      ],
      "type": "SCALAR"
    }
  ],
  "asset": {
    "extras": {
      "author": "joseVG (https://sketchfab.com/josevillotguisan)",
      "license": "SKETCHFAB Standard (https://sketchfab.com/licenses)",
      "source": "https://sketchfab.com/3d-models/rmutt-2019-3155c6044fce413aad82ba2b778b2660",
      "title": "R.Mutt 2019"
    },
    "generator": "Sketchfab-8.33.0",
    "version": "2.0"
  },
  "bufferViews": [
    {
      "buffer": 0,
      "byteLength": 277248,
      "byteOffset": 0,
      "name": "floatBufferViews",
      "target": 34963
    },
    {
      "buffer": 0,
      "byteLength": 103848,
      "byteOffset": 277248,
      "byteStride": 8,
      "name": "floatBufferViews",
      "target": 34962
    },
    {
      "buffer": 0,
      "byteLength": 311544,
      "byteOffset": 381096,
      "byteStride": 12,
      "name": "floatBufferViews",
      "target": 34962
    },
    {
      "buffer": 0,
      "byteLength": 207696,
      "byteOffset": 692640,
      "byteStride": 16,
      "name": "floatBufferViews",
      "target": 34962
    }
  ],
  "buffers": [
    {
      "byteLength": 900336,
      "uri": "scene.bin"
    }
  ],
  "images": [
    {
      "uri": "textures/01_-_Default_baseColor.png"
    },
    {
      "uri": "textures/01_-_Default_metallicRoughness.png"
    },
    {
      "uri": "textures/01_-_Default_normal.png"
    }
  ],
  "materials": [
    {
      "doubleSided": true,
      "name": "01_-_Default",
      "normalTexture": {
        "index": 2,
        "scale": 1,
        "texCoord": 0
      },
      "occlusionTexture": {
        "index": 1,
        "strength": 1,
        "texCoord": 0
      },
      "pbrMetallicRoughness": {
        "baseColorFactor": [
          1,
          1,
          1,
          1
        ],
        "baseColorTexture": {
          "index": 0,
          "texCoord": 0
        },
        "metallicFactor": 1,
        "metallicRoughnessTexture": {
          "index": 1,
          "texCoord": 0
        },
        "roughnessFactor": 0.87117481105861894
      }
    }
  ],
  "meshes": [
    {
      "name": "water_01 - Default_0",
      "primitives": [
        {
          "attributes": {
            "NORMAL": 1,
            "POSITION": 0,
            "TANGENT": 2,
            "TEXCOORD_0": 3
          },
          "indices": 4,
          "material": 0,
          "mode": 4
        }
      ]
    }
  ],
  "nodes": [
    {
      "children": [
        1
      ],
      "name": "RootNode (gltf orientation matrix)",
      "rotation": [
        -0.70710678118654746,
        -0,
        -0,
        0.70710678118654757
      ]
    },
    {
      "children": [
        2
      ],
      "matrix": [
        -0.04853874072432518,
        1.3749905668111045e-17,
        -1.5265461859160828e-33,
        0,
        1.3749905668111045e-17,
        0.04853874072432518,
        -1.3749905668111045e-17,
        0,
        -2.3684852125934508e-33,
        -1.3749905668111045e-17,
        -0.04853874072432518,
        0,
        0.6964152455329895,
        -4.3954921125077817e-07,
        -9.0260047912597656,
        1
      ],
      "name": "RootNode (model correction matrix)"
    },
    {
      "children": [
        3
      ],
      "matrix": [
        1,
        0,
        0,
        0,
        0,
        -1,
        0,
        0,
        0,
        0,
        -1,
        0,
        0,
        0,
        0,
        1
      ],
      "name": "d15c0004ee254d01afffacfb40d409b9.fbx"
    },
    {
      "children": [
        4
      ],
      "name": "RootNode"
    },
    {
      "children": [
        5
      ],
      "matrix": [
        0.39370077848434448,
        0,
        0,
        0,
        0,
        -6.4142000405821538e-08,
        0.39370077848433926,
        0,
        0,
        -0.39370077848433926,
        -6.4142000405821538e-08,
        0,
        0.34820377826690674,
        2.0352892875671387,
        -0.10752565413713455,
        1
      ],
      "name": "water"
    },
    {
      "children": [
        6
      ],
      "matrix": [
        1,
        0,
        -0,
        0,
        0,
        1,
        0,
        0,
        0,
        0,
        1,
        0,
        4.4271955490112305,
        0.27311515808105469,
        2.0299291610717773,
        1
      ],
      "name": ""
    },
    {
      "mesh": 0,
      "name": "water_01 - Default_0"
    }
  ],
  "samplers": [
    {
      "magFilter": 9729,
      "minFilter": 9987,
      "wrapS": 10497,
      "wrapT": 10497
    }
  ],
  "scene": 0,
  "scenes": [
    {
      "name": "OSG_Scene",
      "nodes": [
        0
      ]
    }
  ],
  "textures": [
    {
      "sampler": 0,
      "source": 0
    },
    {
      "sampler": 0,
      "source": 1
    },
    {
      "sampler": 0,
      "source": 2
    }
  ]
}

