{
  "accessors": [
    {
      "bufferView": 2,
      "componentType": 5126,
      "count": 65532,
      "max": [
        1.0065380334854126,
        0.9722449779510498,
        7.699606895446777
      ],
      "min": [
        -1.7269819974899292,
        -1.8229219913482666,
        0.9999989867210388
      ],
      "type": "VEC3"
    },
    {
      "bufferView": 2,
      "byteOffset": 786384,
      "componentType": 5126,
      "count": 65532,
      "max": [
        0.9999971389770508,
        1.0,
        0.9970168471336365
      ],
      "min": [
        -0.9999938011169434,
        -0.9999991655349731,
        -0.9987965226173401
      ],
      "type": "VEC3"
    },
    {
      "bufferView": 1,
      "componentType": 5126,
      "count": 65532,
      "max": [
        0.9995049834251404,
        0.8283690214157104
      ],
      "min": [
        0.002428000094369054,
        0.0013429999817162752
      ],
      "type": "VEC2"
    },
    {
      "bufferView": 0,
      "componentType": 5125,
      "count": 312951,
      "type": "SCALAR"
    },
    {
      "bufferView": 2,
      "byteOffset": 1572768,
      "componentType": 5126,
      "count": 65532,
      "max": [
        0.7853800058364868,
        0.6385570168495178,
        7.373189926147461
      ],
      "min": [
        -1.4132159948349,
        -2.098119020462036,
        1.7169170379638672
      ],
      "type": "VEC3"
    },
    {
      "bufferView": 2,
      "byteOffset": 2359152,
      "componentType": 5126,
      "count": 65532,
      "max": [
        0.9999957084655762,
        0.9999792575836182,
        0.939475417137146
      ],
      "min": [
        -0.9999960660934448,
        -0.9999997615814209,
        -0.9999003410339355
      ],
      "type": "VEC3"
    },
    {
      "bufferView": 1,
      "byteOffset": 524256,
      "componentType": 5126,
      "count": 65532,
      "max": [
        0.9995660185813904,
        0.8283690214157104
      ],
      "min": [
        0.00024399999529123306,
        0.0007570000016130507
      ],
      "type": "VEC2"
    },
    {
      "bufferView": 0,
      "byteOffset": 1251804,
      "componentType": 5125,
      "count": 294690,
      "type": "SCALAR"
    },
    {
      "bufferView": 2,
      "byteOffset": 3145536,
      "componentType": 5126,
      "count": 65534,
      "max": [
        1.1982840299606323,
        0.8958230018615723,
        10.319860458374023
      ],
      "min": [
        -1.6803909540176392,
        -2.796083927154541,
        1.0
      ],
      "type": "VEC3"
    },
    {
      "bufferView": 2,
      "byteOffset": 3931944,
      "componentType": 5126,
      "count": 65534,
      "max": [
        0.9999977350234985,
        0.9999762773513794,
        0.9999462366104126
      ],
      "min": [
        -0.9999960660934448,
        -0.9999978542327881,
        -0.9999467134475708
      ],
      "type": "VEC3"
    },
    {
      "bufferView": 1,
      "byteOffset": 1048512,
      "componentType": 5126,
      "count": 65534,
      "max": [
        0.999413013458252,
        0.8288570046424866
      ],
      "min": [
        0.00024399999529123306,
        0.0007639999967068434
      ],
      "type": "VEC2"
    },
    {
      "bufferView": 0,
      "byteOffset": 2430564,
      "componentType": 5125,
      "count": 292881,
      "type": "SCALAR"
    },
    {
      "bufferView": 2,
      "byteOffset": 4718352,
      "componentType": 5126,
      "count": 65532,
      "max": [
        1.1323740482330322,
        0.6449810266494751,
        8.910859107971191
      ],
      "min": [
        -1.4244049787521362,
        -2.8840808868408203,
        1.8909889459609985
      ],
      "type": "VEC3"
    },
    {
      "bufferView": 2,
      "byteOffset": 5504736,
      "componentType": 5126,
      "count": 65532,
      "max": [
        0.9999754428863525,
        0.9999814033508301,
        0.9999793767929077
      ],
      "min": [
        -0.9999958276748657,
        -0.9999854564666748,
        -0.999843418598175
      ],
      "type": "VEC3"
    },
    {
      "bufferView": 1,
      "byteOffset": 1572784,
      "componentType": 5126,
      "count": 65532,
      "max": [
        0.9993510246276855,
        0.8288570046424866
      ],
      "min": [
        0.00024399999529123306,
        0.08912999927997589
      ],
      "type": "VEC2"
    },
    {
      "bufferView": 0,
      "byteOffset": 3602088,
      "componentType": 5125,
      "count": 274041,
      "type": "SCALAR"
    },
    {
      "bufferView": 2,
      "byteOffset": 6291120,
      "componentType": 5126,
      "count": 65532,
      "max": [
        1.0047529935836792,
        1.0842039585113525,
        10.307456970214844
      ],
      "min": [
        -1.178048014640808,
        -2.5190839767456055,
        1.009682059288025
      ],
      "type": "VEC3"
    },
    {
      "bufferView": 2,
      "byteOffset": 7077504,
      "componentType": 5126,
      "count": 65532,
      "max": [
        0.9999924898147583,
        0.9999364614486694,
        0.9999793767929077
      ],
      "min": [
        -0.9999806880950928,
        -0.9999325275421143,
        -0.999655544757843
      ],
      "type": "VEC3"
    },
    {
      "bufferView": 1,
      "byteOffset": 2097040,
      "componentType": 5126,
      "count": 65532,
      "max": [
        0.9995070099830627,
        0.8288570046424866
      ],
      "min": [
        0.00024399999529123306,
        0.030263999477028847
      ],
      "type": "VEC2"
    },
    {
      "bufferView": 0,
      "byteOffset": 4698252,
      "componentType": 5125,
      "count": 268422,
      "type": "SCALAR"
    },
    {
      "bufferView": 2,
      "byteOffset": 7863888,
      "componentType": 5126,
      "count": 64804,
      "max": [
        1.1993420124053955,
        1.146589994430542,
        8.255826950073242
      ],
      "min": [
        -1.7259680032730103,
        -2.9747750759124756,
        1.0006530284881592
      ],
      "type": "VEC3"
    },
    {
      "bufferView": 2,
      "byteOffset": 8641536,
      "componentType": 5126,
      "count": 64804,
      "max": [
        0.9999971389770508,
        0.9999997615814209,
        0.9999465942382813
      ],
      "min": [
        -0.9999938011169434,
        -0.9997214674949646,
        -0.9997398257255554
      ],
      "type": "VEC3"
    },
    {
      "bufferView": 1,
      "byteOffset": 2621296,
      "componentType": 5126,
      "count": 64804,
      "max": [
        0.9994710087776184,
        0.8288570046424866
      ],
      "min": [
        0.00024399999529123306,
        0.0007869999972172081
      ],
      "type": "VEC2"
    },
    {
      "bufferView": 0,
      "byteOffset": 5771940,
      "componentType": 5125,
      "count": 248907,
      "type": "SCALAR"
    },
    {
      "bufferView": 2,
      "byteOffset": 9419184,
      "componentType": 5126,
      "count": 2312,
      "max": [
        1.0050090551376343,
        0.9043599963188171,
        1.0
      ],
      "min": [
        -1.7265119552612305,
        -1.8229219913482666,
        0.9999989867210388
      ],
      "type": "VEC3"
    },
    {
      "bufferView": 2,
      "byteOffset": 9446928,
      "componentType": 5126,
      "count": 2312,
      "max": [
        0.0681980550289154,
        0.019400227814912796,
        -0.5321085453033447
      ],
      "min": [
        -0.8465135097503662,
        -0.037000566720962524,
        -1.0
      ],
      "type": "VEC3"
    },
    {
      "bufferView": 1,
      "byteOffset": 3139728,
      "componentType": 5126,
      "count": 2312,
      "max": [
        0.7831810116767883,
        0.6677079796791077
      ],
      "min": [
        0.7306849956512451,
        0.6038119792938232
      ],
      "type": "VEC2"
    },
    {
      "bufferView": 0,
      "byteOffset": 6767568,
      "componentType": 5125,
      "count": 2997,
      "type": "SCALAR"
    }
  ],
  "asset": {
    "extras": {
      "author": "noe-3d.at (https://sketchfab.com/www.noe-3d.at)",
      "license": "CC-BY-NC-4.0 (http://creativecommons.org/licenses/by-nc/4.0/)",
      "source": "https://sketchfab.com/3d-models/christusfigur-351abbc72dfd4a4399d32bd450c6787d",
      "title": "Christusfigur"
    },
    "generator": "Sketchfab-12.29.0",
    "version": "2.0"
  },
  "bufferViews": [
    {
      "buffer": 0,
      "byteLength": 6779556,
      "name": "floatBufferViews",
      "target": 34963
    },
    {
      "buffer": 0,
      "byteLength": 3158224,
      "byteOffset": 6779556,
      "byteStride": 8,
      "name": "floatBufferViews",
      "target": 34962
    },
    {
      "buffer": 0,
      "byteLength": 9474672,
      "byteOffset": 9937780,
      "byteStride": 12,
      "name": "floatBufferViews",
      "target": 34962
    }
  ],
  "buffers": [
    {
      "byteLength": 19412452,
      "uri": "scene.bin"
    }
  ],
  "images": [
    {
      "uri": "textures/Christus_O_Material_u1_v1_baseColor.png"
    }
  ],
  "materials": [
    {
      "doubleSided": true,
      "name": "Christus_O_Material_u1_v1",
      "pbrMetallicRoughness": {
        "baseColorTexture": {
          "index": 0
        },
        "metallicFactor": 0.0
      }
    },
    {
      "doubleSided": true,
      "name": "bottom",
      "pbrMetallicRoughness": {
        "baseColorFactor": [
          0.01967484905970122,
          0.01967484905970122,
          0.01967484905970122,
          1.0
        ],
        "metallicFactor": 0.0
      }
    }
  ],
  "meshes": [
    {
      "name": "Object_0",
      "primitives": [
        {
          "attributes": {
            "NORMAL": 1,
            "POSITION": 0,
            "TEXCOORD_0": 2
          },
          "indices": 3,
          "material": 0,
          "mode": 4
        }
      ]
    },
    {
      "name": "Object_1",
      "primitives": [
        {
          "attributes": {
            "NORMAL": 5,
            "POSITION": 4,
            "TEXCOORD_0": 6
          },
          "indices": 7,
          "material": 0,
          "mode": 4
        }
      ]
    },
    {
      "name": "Object_2",
      "primitives": [
        {
          "attributes": {
            "NORMAL": 9,
            "POSITION": 8,
            "TEXCOORD_0": 10
          },
          "indices": 11,
          "material": 0,
          "mode": 4
        }
      ]
    },
    {
      "name": "Object_3",
      "primitives": [
        {
          "attributes": {
            "NORMAL": 13,
            "POSITION": 12,
            "TEXCOORD_0": 14
          },
          "indices": 15,
          "material": 0,
          "mode": 4
        }
      ]
    },
    {
      "name": "Object_4",
      "primitives": [
        {
          "attributes": {
            "NORMAL": 17,
            "POSITION": 16,
            "TEXCOORD_0": 18
          },
          "indices": 19,
          "material": 0,
          "mode": 4
        }
      ]
    },
    {
      "name": "Object_5",
      "primitives": [
        {
          "attributes": {
            "NORMAL": 21,
            "POSITION": 20,
            "TEXCOORD_0": 22
          },
          "indices": 23,
          "material": 0,
          "mode": 4
        }
      ]
    },
    {
      "name": "Object_6",
      "primitives": [
        {
          "attributes": {
            "NORMAL": 25,
            "POSITION": 24,
            "TEXCOORD_0": 26
          },
          "indices": 27,
          "material": 1,
          "mode": 4
        }
      ]
    }
  ],
  "nodes": [
    {
      "children": [
        1
      ],
      "matrix": [
        0.010609453867882479,
        -4.199379222355575e-17,
        0.1891232270098797,
        0.0,
        0.1891232270098797,
        2.3557719925643104e-18,
        -0.010609453867882479,
        0.0,
        0.0,
        0.18942058086395264,
        4.205981804260631e-17,
        0.0,
        0.6636141538619995,
        -2.5008883348721673e-16,
        1.1262999773025513,
        1.0
      ],
      "name": "Sketchfab_model"
    },
    {
      "children": [
        2,
        3,
        4,
        5,
        6,
        7,
        8
      ],
      "name": "Christus_C.obj.cleaner.materialmerger.gles"
    },
    {
      "mesh": 0,
      "name": "Object_2"
    },
    {
      "mesh": 1,
      "name": "Object_3"
    },
    {
      "mesh": 2,
      "name": "Object_4"
    },
    {
      "mesh": 3,
      "name": "Object_5"
    },
    {
      "mesh": 4,
      "name": "Object_6"
    },
    {
      "mesh": 5,
      "name": "Object_7"
    },
    {
      "mesh": 6,
      "name": "Object_8"
    }
  ],
  "samplers": [
    {
      "magFilter": 9729,
      "minFilter": 9987,
      "wrapS": 10497,
      "wrapT": 10497
    }
  ],
  "scene": 0,
  "scenes": [
    {
      "name": "Sketchfab_Scene",
      "nodes": [
        0
      ]
    }
  ],
  "textures": [
    {
      "sampler": 0,
      "source": 0
    }
  ]
}
